<svg xmlns="http://www.w3.org/2000/svg" xml:space="preserve" width="109" height="43" data-id="lg_uAwTlwGkBcE099X0PD" data-version="1" viewBox="0 0 109 43">
  <path fill="#21232b" stroke="transparent" d="M0 0h109v43H0z"/>
  <g data-padding="20">
    <g transform="translate(-988.84 -737.531)scale(0.1)">
      <path fill="#f4f3f0" d="M1226.086 1046.628h-494.4s110.622-494.4 247.2-494.4 247.2 494.4 247.2 494.4" opacity=".6"/>
      <path fill="#d5e6ff" d="M731.626 486.528h494.4s-110.622 494.4-247.2 494.4-247.2-494.4-247.2-494.4" opacity=".6"/>
      <path fill="#2f84ff" d="m1053.037 698.6-2.964-7.989a3.38 3.38 0 0 0-2.721-2.172l-8.473-1.142c-4.636-.586-3.275-7.112.948-6.984l13.297.408a3.38 3.38 0 0 1 3.17 2.53l3.344 12.877c1.06 4.09-4.981 6.836-6.622 2.5"/>
      <path fill="#2f84ff" d="M1072.292 838.745a7.774 7.774 0 0 1-10.81 1.188l-56.687-45.253a.676.676 0 0 0-.908.054c-9.66 9.934-19.784 19.8-30.042 28.91a.68.68 0 0 0-.184.72l14.766 41.585c3.256 9.086-2.545 14.836-5.92 19.062a7.774 7.774 0 0 1-10.83 1.215l-39.834-31.8a1.69 1.69 0 0 1-.224-2.427q5.009-5.733 9.553-11.534.19-.238.39-.38c24.688-15.107 68.593-58.945 97.27-94.87 37.853-47.416 34.828-63.02 23.152-72.342s-27.564-8.813-65.415 38.603c-28.68 35.925-61.7 88.45-70.962 115.872q-.095.227-.263.44-4.666 5.79-9.178 11.875a1.69 1.69 0 0 1-2.417.32l-39.808-31.78a7.774 7.774 0 0 1-1.215-10.83c3.353-4.2 7.695-11.157 17.277-9.995l43.85 5.207a.68.68 0 0 0 .633-.36c6.586-12.042 13.99-24.08 21.537-35.7a.676.676 0 0 0-.15-.898l-56.686-45.253a7.774 7.774 0 0 1-1.236-10.804c5.693-7.132 14.54-21.304 33.795-19.039l74.417 8.85a.68.68 0 0 0 .602-.213c25.773-27.95 43.666-34.167 59.436-21.578s13.7 31.436-7.847 62.761q-.232.29-.1.613l25.095 70.634c6.49 18.2-5.3 29.935-11.057 37.147"/>
      <!-- Additional SVG elements here -->
    </g>
  </g>
</svg>
